<svg xmlns="http://www.w3.org/2000/svg" width="11" height="11">
    <g>
        <path d="M 6.215 6.151 C 5.989 6.378 5.989 6.746 6.215 6.972 L 6.847 7.607 C 6.96 7.72 7.109 7.777 7.257 7.777 C 7.405 7.777 7.553 7.72 7.666 7.607 C 7.892 7.38 7.892 7.013 7.666 6.786 L 7.033 6.151 C 6.807 5.925 6.441 5.925 6.215 6.151" fill="rgba(29,29,27,1)"></path>
        <path d="M 2.402 8.379 C 2.515 8.492 2.663 8.549 2.812 8.549 C 2.96 8.549 3.108 8.492 3.221 8.379 L 7.504 4.084 C 7.73 3.857 7.73 3.489 7.504 3.263 C 7.278 3.036 6.911 3.036 6.685 3.263 L 4.824 5.129 L 4.824 3.636 C 4.824 3.315 4.565 3.055 4.245 3.055 C 3.925 3.055 3.666 3.315 3.666 3.636 L 3.666 6.174 C 3.666 6.21 3.67 6.246 3.676 6.28 L 2.402 7.558 C 2.176 7.784 2.176 8.152 2.402 8.379" fill="rgba(29,29,27,1)"></path>
        <path d="M 5.385 0 L 11 0 L 10.993 4.368 C 10.993 8.025 8.026 11 4.379 11 L 1.979 11 C 1.659 11 1.4 10.74 1.4 10.419 C 1.4 10.099 1.659 9.839 1.979 9.839 L 4.379 9.839 C 7.388 9.839 9.835 7.384 9.835 4.367 L 9.84 1.161 L 5.385 1.161 C 3.054 1.161 1.158 3.063 1.158 5.4 L 1.158 8.421 C 1.158 8.742 0.899 9.002 0.579 9.002 C 0.259 9.002 0 8.742 0 8.421 L 0 5.4 C 0 2.422 2.416 0 5.385 0" fill="rgba(29,29,27,1)"></path>
    </g>
</svg>
